<svg xmlns="http://www.w3.org/2000/svg" xmlns:xlink="http://www.w3.org/1999/xlink" version="1.1" width="5982.2897pt" height="1629.7267pt" viewBox="0 0 5982.2897 1629.7267">
<g id="layer_1" data-name="Слой 1">
<path transform="matrix(1,0,0,-1,1,1628.7267)" d="M5847.844 1284.2195 5980.2897 1283.4867 5361.0339 676.7084 5970.7067 52.4568 5840.3425 52.0084 5294.0715 611.1751 5066.8615 388.8133 5067.5236 52.2227 4973.833 52.0353 4973.1706 389.3253 4973.0935 428.1401 4970.7248 1627.5393 5064.415 1627.7267 5066.6037 519.656C5326.9938 774.4915 5587.417 1029.354 5847.844 1284.2195ZM201.2845 933.8831C163.3164 904.2766 125.3483 874.6705 87.3799 845.064L57.613 821.8488 0 895.7307 29.7669 918.9459C86.9383 963.5295 144.1097 1008.106 201.2845 1052.6828 201.2845 1112.1296 201.2845 1171.5733 201.2845 1231.0166V1290.0352H294.9755V1231.0166C294.9755 1195.9226 294.9755 1160.8289 294.9755 1125.7316 421.0262 1224.0133 547.0773 1322.2981 673.0946 1420.6232L710.0289 1449.44 767.662 1375.5713 730.728 1346.7549C585.5037 1233.4459 440.2395 1120.1906 294.9755 1006.9316 294.9755 828.0961 294.9755 649.2637 294.9755 470.4282 300.1584 320.6401 381.1275 217.463 508.0785 143.4039 642.1833 75.672 770.9882 79.6337 899.4416 158.3943L959.2965 199.8524 958.7143 85.0912 948.4152 78.5228C792.0351-17.3597 627.8017-22.5125 464.4754 60.4641L463.3041 61.0597 462.1666 61.7221C306.1278 152.3412 207.3376 284.773 201.3114 468.0992L201.2845 468.8688V469.6384C201.2845 624.3854 201.2845 779.1324 201.2845 933.8831ZM2333.8878 1238.0769C2335.7279 1012.9881 2337.237 787.926 2338.0972 562.8005 2339.3084 245.6337 2073.0125 0 1760.694 0 1445.9567 0 1191.4323 246.7848 1183.3078 561.4152L1183.2911 562.3322C1181.8892 787.3773 1180.477 1012.426 1179.0816 1237.4711L1178.794 1284.3167 1272.4815 1284.8956 1272.7726 1238.0534C1274.1644 1013.0083 1275.5767 787.9595 1276.9651 563.8311 1283.7813 299.9611 1496.737 93.6907 1760.694 93.6907 2021.1344 93.6907 2245.4202 297.2072 2244.406 562.4459 2243.5465 787.4878 2241.5924 1012.4493 2240.197 1237.4711L2239.909 1284.3167 2333.5965 1284.8956ZM2548.155 92.0914C2546.3148 317.1801 2544.8057 542.2422 2543.9459 767.3678 2542.7344 1084.5343 2809.0306 1330.1683 3121.3485 1330.1683 3161.2645 1330.1683 3201.1163 1326.2066 3240.2222 1318.189L3270.0257 1312.0758 3270.6048 1216.0763 3221.3973 1226.4124C3188.5216 1233.3186 3154.9434 1236.4776 3121.3485 1236.4776 2860.9085 1236.4776 2636.6229 1032.961 2637.6365 767.7224 2638.4964 542.6804 2640.4508 317.7187 2641.8458 92.6969L2642.1336 45.8515 2548.4464 45.2727ZM4660.6716 330.8958C4543.364 133.6901 4327.36 2.2853 4082.1109 2.2853 3712.233 2.2853 3410.2843 300.6771 3410.2843 671.2475 3410.2843 1041.8182 3712.233 1340.2097 4082.1109 1340.2097 4441.117 1340.2097 4735.5739 1059.1642 4753.114 704.0126L4754.767 703.9791 4753.9475 664.6258 4754.71 49.6125 4661.0197 49.4989ZM4660.2565 665.5425 4660.25 671.1908C4659.855 989.9668 4400.408 1246.519 4082.1109 1246.519 3763.9434 1246.519 3503.975 990.1006 3503.975 671.2475 3503.975 352.3944 3763.9434 95.9763 4082.1109 95.9763 4395.48 95.9763 4653.5979 345.1501 4660.1228 659.0911Z" fill-rule="evenodd"/>
<path transform="matrix(1,0,0,-1,1,1628.7267)" d="M707.8221 1090.9356C788.5001 1090.9356 853.9044 1029.7018 853.9044 954.1687 853.9044 878.6356 788.5001 817.4018 707.8221 817.4018 627.1441 817.4018 561.7397 878.6356 561.7397 954.1687 561.7397 1029.7018 627.1441 1090.9356 707.8221 1090.9356" fill-rule="evenodd"/>
</g>
</svg>
